<svg width="60" height="10" viewBox="0 0 60 10" fill="none" xmlns="http://www.w3.org/2000/svg">
<path d="M4.836 9H1.044C0.892 9 0.78 8.968 0.708 8.904C0.644 8.832 0.612 8.72 0.612 8.568V7.164C0.612 7.012 0.644 6.904 0.708 6.84C0.78 6.768 0.892 6.732 1.044 6.732H4.272C4.376 6.732 4.452 6.7 4.5 6.636C4.556 6.564 4.584 6.48 4.584 6.384C4.584 6.248 4.556 6.148 4.5 6.084C4.452 6.02 4.376 5.984 4.272 5.976L2.472 5.724C1.912 5.644 1.46 5.46 1.116 5.172C0.78 4.884 0.612 4.404 0.612 3.732V2.472C0.612 1.792 0.832 1.272 1.272 0.912C1.712 0.544 2.32 0.36 3.096 0.36H6.456C6.608 0.36 6.716 0.396 6.78 0.468C6.852 0.532 6.888 0.64 6.888 0.792V2.22C6.888 2.372 6.852 2.484 6.78 2.556C6.716 2.62 6.608 2.652 6.456 2.652H3.66C3.556 2.652 3.476 2.688 3.42 2.76C3.364 2.824 3.336 2.908 3.336 3.012C3.336 3.116 3.364 3.204 3.42 3.276C3.476 3.348 3.556 3.388 3.66 3.396L5.448 3.636C6.008 3.716 6.46 3.9 6.804 4.188C7.148 4.476 7.32 4.956 7.32 5.628V6.888C7.32 7.568 7.096 8.092 6.648 8.46C6.208 8.82 5.604 9 4.836 9ZM10.9247 9H9.06469C8.91269 9 8.80069 8.968 8.72869 8.904C8.66469 8.832 8.63269 8.72 8.63269 8.568V0.792C8.63269 0.64 8.66469 0.532 8.72869 0.468C8.80069 0.396 8.91269 0.36 9.06469 0.36H10.9247C11.0767 0.36 11.1847 0.396 11.2487 0.468C11.3207 0.532 11.3567 0.64 11.3567 0.792V3.396H13.3607V0.792C13.3607 0.64 13.3927 0.532 13.4567 0.468C13.5287 0.396 13.6407 0.36 13.7927 0.36H15.6527C15.8047 0.36 15.9127 0.396 15.9767 0.468C16.0487 0.532 16.0847 0.64 16.0847 0.792V8.568C16.0847 8.72 16.0487 8.832 15.9767 8.904C15.9127 8.968 15.8047 9 15.6527 9H13.7927C13.6407 9 13.5287 8.968 13.4567 8.904C13.3927 8.832 13.3607 8.72 13.3607 8.568V5.904H11.3567V8.568C11.3567 8.72 11.3207 8.832 11.2487 8.904C11.1847 8.968 11.0767 9 10.9247 9ZM25.0582 6.732C25.0582 7.1 25.0022 7.436 24.8902 7.74C24.7862 8.036 24.5942 8.292 24.3142 8.508C24.0422 8.716 23.6622 8.88 23.1742 9C22.6942 9.12 22.0822 9.18 21.3382 9.18C20.5942 9.18 19.9782 9.12 19.4902 9C19.0022 8.88 18.6182 8.716 18.3382 8.508C18.0662 8.292 17.8742 8.036 17.7622 7.74C17.6582 7.436 17.6062 7.1 17.6062 6.732V2.64C17.6062 2.272 17.6582 1.94 17.7622 1.644C17.8742 1.34 18.0662 1.08 18.3382 0.864C18.6182 0.648 19.0022 0.48 19.4902 0.36C19.9782 0.24 20.5942 0.18 21.3382 0.18C22.0822 0.18 22.6942 0.24 23.1742 0.36C23.6622 0.48 24.0422 0.648 24.3142 0.864C24.5942 1.08 24.7862 1.34 24.8902 1.644C25.0022 1.94 25.0582 2.272 25.0582 2.64V6.732ZM20.3302 6.3C20.3302 6.46 20.3902 6.596 20.5102 6.708C20.6302 6.812 20.9062 6.864 21.3382 6.864C21.7702 6.864 22.0462 6.812 22.1662 6.708C22.2862 6.596 22.3462 6.46 22.3462 6.3V3.072C22.3462 2.92 22.2862 2.792 22.1662 2.688C22.0462 2.576 21.7702 2.52 21.3382 2.52C20.9062 2.52 20.6302 2.576 20.5102 2.688C20.3902 2.792 20.3302 2.92 20.3302 3.072V6.3ZM28.8778 9H27.0178C26.8658 9 26.7538 8.968 26.6818 8.904C26.6178 8.832 26.5858 8.72 26.5858 8.568V0.792C26.5858 0.64 26.6178 0.532 26.6818 0.468C26.7538 0.396 26.8658 0.36 27.0178 0.36H30.6898C31.7778 0.36 32.5218 0.576 32.9218 1.008C33.3218 1.44 33.5218 2.004 33.5218 2.7V4.236C33.5218 4.932 33.3218 5.496 32.9218 5.928C32.5218 6.36 31.7778 6.576 30.6898 6.576H29.3098V8.568C29.3098 8.72 29.2738 8.832 29.2018 8.904C29.1378 8.968 29.0298 9 28.8778 9ZM29.2858 2.604V4.416H30.3658C30.5978 4.416 30.7498 4.356 30.8218 4.236C30.8938 4.116 30.9298 3.98 30.9298 3.828V3.192C30.9298 3.04 30.8938 2.904 30.8218 2.784C30.7498 2.664 30.5978 2.604 30.3658 2.604H29.2858ZM37.0575 9H35.1975C35.0455 9 34.9335 8.968 34.8615 8.904C34.7975 8.832 34.7655 8.72 34.7655 8.568V0.792C34.7655 0.64 34.7975 0.532 34.8615 0.468C34.9335 0.396 35.0455 0.36 35.1975 0.36H37.0575C37.2095 0.36 37.3175 0.396 37.3815 0.468C37.4535 0.532 37.4895 0.64 37.4895 0.792V3.552H37.9695L39.2055 0.756C39.2615 0.612 39.3375 0.512 39.4335 0.456C39.5295 0.392 39.6535 0.36 39.8055 0.36H41.6535C41.7895 0.36 41.8815 0.396 41.9295 0.468C41.9775 0.532 41.9735 0.628 41.9175 0.756L40.6935 3.552C41.1415 3.576 41.4975 3.736 41.7615 4.032C42.0335 4.32 42.1695 4.704 42.1695 5.184V8.568C42.1695 8.72 42.1335 8.832 42.0615 8.904C41.9975 8.968 41.8895 9 41.7375 9H39.8895C39.7375 9 39.6255 8.968 39.5535 8.904C39.4895 8.832 39.4575 8.72 39.4575 8.568V6.228C39.4575 6.1 39.4255 6 39.3615 5.928C39.2975 5.856 39.2015 5.82 39.0735 5.82H37.4895V8.568C37.4895 8.72 37.4535 8.832 37.3815 8.904C37.3175 8.968 37.2095 9 37.0575 9ZM50.3186 9H46.5386C45.5386 9 44.7946 8.8 44.3066 8.4C43.8266 8 43.5866 7.384 43.5866 6.552V2.808C43.5866 1.976 43.8266 1.36 44.3066 0.96C44.7946 0.56 45.5386 0.36 46.5386 0.36H49.5386C49.6906 0.36 49.7986 0.396 49.8626 0.468C49.9346 0.532 49.9706 0.64 49.9706 0.792V2.244C49.9706 2.396 49.9346 2.508 49.8626 2.58C49.7986 2.644 49.6906 2.676 49.5386 2.676H47.0426C46.7946 2.676 46.6106 2.728 46.4906 2.832C46.3706 2.928 46.3106 3.076 46.3106 3.276V6.144C46.3106 6.344 46.3546 6.492 46.4426 6.588C46.5386 6.684 46.6786 6.732 46.8626 6.732H48.0266V4.86C48.0266 4.708 48.0586 4.6 48.1226 4.536C48.1946 4.464 48.3066 4.428 48.4586 4.428H50.3186C50.4706 4.428 50.5786 4.464 50.6426 4.536C50.7146 4.6 50.7506 4.708 50.7506 4.86V8.568C50.7506 8.72 50.7146 8.832 50.6426 8.904C50.5786 8.968 50.4706 9 50.3186 9ZM54.5067 9H52.6467C52.4947 9 52.3827 8.968 52.3107 8.904C52.2467 8.832 52.2147 8.72 52.2147 8.568V0.792C52.2147 0.64 52.2467 0.532 52.3107 0.468C52.3827 0.396 52.4947 0.36 52.6467 0.36H56.3187C57.4067 0.36 58.1507 0.576 58.5507 1.008C58.9507 1.44 59.1507 2.004 59.1507 2.7V4.236C59.1507 4.932 58.9507 5.496 58.5507 5.928C58.1507 6.36 57.4067 6.576 56.3187 6.576H54.9387V8.568C54.9387 8.72 54.9027 8.832 54.8307 8.904C54.7667 8.968 54.6587 9 54.5067 9ZM54.9147 2.604V4.416H55.9947C56.2267 4.416 56.3787 4.356 56.4507 4.236C56.5227 4.116 56.5587 3.98 56.5587 3.828V3.192C56.5587 3.04 56.5227 2.904 56.4507 2.784C56.3787 2.664 56.2267 2.604 55.9947 2.604H54.9147Z" fill="black"/>
</svg>
